<svg xmlns="http://www.w3.org/2000/svg" width="40" height="40" viewBox="0 0 40 40">
  <g id="Group_11" data-name="Group 11" transform="translate(-179 -1000)">
    <circle id="Ellipse_2" data-name="Ellipse 2" cx="20" cy="20" r="20" transform="translate(179 1000)" fill="#fff"/>
    <g id="instagram" transform="translate(191 1012)">
      <path id="Path_49" data-name="Path 49" d="M10.868,0H4.612A4.617,4.617,0,0,0,0,4.612v6.257A4.617,4.617,0,0,0,4.612,15.48h6.257a4.617,4.617,0,0,0,4.612-4.612V4.612A4.617,4.617,0,0,0,10.868,0Zm3.054,10.868a3.054,3.054,0,0,1-3.054,3.054H4.612a3.054,3.054,0,0,1-3.054-3.054V4.612A3.054,3.054,0,0,1,4.612,1.557h6.257a3.054,3.054,0,0,1,3.054,3.054v6.257Z" fill="#0097a7"/>
      <path id="Path_50" data-name="Path 50" d="M136.992,133a3.992,3.992,0,1,0,3.992,3.992A4,4,0,0,0,136.992,133Zm0,6.431a2.439,2.439,0,1,1,2.439-2.439A2.439,2.439,0,0,1,136.992,139.431Z" transform="translate(-129.252 -129.252)" fill="#0097a7"/>
      <circle id="Ellipse_1" data-name="Ellipse 1" cx="0.962" cy="0.962" r="0.962" transform="translate(10.787 2.806)" fill="#0097a7"/>
    </g>
  </g>
</svg>
