<svg xmlns="http://www.w3.org/2000/svg" width="40" height="40" viewBox="0 0 40 40">
  <g id="Group_12" data-name="Group 12" transform="translate(-47 -1000)">
    <g id="Group_9" data-name="Group 9">
      <circle id="Ellipse_2" data-name="Ellipse 2" cx="20" cy="20" r="20" transform="translate(47 1000)" fill="#fff"/>
    </g>
    <g id="behance" transform="translate(55 924.112)">
      <path id="Path_40" data-name="Path 40" d="M10.628,94.393a4.2,4.2,0,0,0,.669-2.349,4.263,4.263,0,0,0-4.282-4.156H.548A.548.548,0,0,0,0,88.436v14.221a.548.548,0,0,0,.548.548H7.772a4.849,4.849,0,0,0,2.857-8.812ZM2.837,90.725H7.07a1.39,1.39,0,1,1,0,2.781H2.837Zm5,9.644h-5V96.343h5a2.013,2.013,0,0,1,0,4.026Z" transform="translate(0 0)" fill="#0097a7"/>
      <path id="Path_41" data-name="Path 41" d="M257.673,157.313a5.821,5.821,0,1,0-5.818,6.005,5.765,5.765,0,0,0,4.838-2.669,6.07,6.07,0,0,0,.367-.651.246.246,0,0,0-.222-.353l-2.86-.007a.241.241,0,0,0-.169.07,2.706,2.706,0,0,1-1.954.773,3.033,3.033,0,0,1-2.909-2.48H257.1a.569.569,0,0,0,.569-.569Zm-5.818-3.168a2.941,2.941,0,0,1,2.492,1.432h-4.983A2.94,2.94,0,0,1,251.855,154.145Z" transform="translate(-232.559 -59.946)" fill="#0097a7"/>
      <path id="Path_42" data-name="Path 42" d="M299.811,101.059h-5.16a.436.436,0,0,1-.436-.436V99.329a.436.436,0,0,1,.436-.436h5.16a.436.436,0,0,1,.436.436v1.295A.436.436,0,0,1,299.811,101.059Z" transform="translate(-278.098 -10.402)" fill="#0097a7"/>
    </g>
  </g>
</svg>
